<!DOCTYPE svg PUBLIC "-//W3C//DTD SVG 20010904//EN" "http://www.w3.org/TR/2001/REC-SVG-20010904/DTD/svg10.dtd">
<svg version="1.0" xmlns="http://www.w3.org/2000/svg" width="71px" height="73px" viewBox="0 0 710 730" preserveAspectRatio="xMidYMid meet">
<g id="layer101" fill="#000000" stroke="none">
 <path d="M61 704 c-19 -24 -21 -40 -21 -160 l0 -134 135 0 135 0 0 160 0 160 -114 0 c-112 0 -115 -1 -135 -26z"/>
 <path d="M400 570 l0 -160 135 0 135 0 0 134 c0 120 -2 136 -21 160 -20 25 -23 26 -135 26 l-114 0 0 -160z"/>
 <path d="M0 315 l0 -55 155 0 155 0 0 55 0 55 -155 0 -155 0 0 -55z"/>
 <path d="M400 315 l0 -55 155 0 155 0 0 55 0 55 -155 0 -155 0 0 -55z"/>
 <path d="M141 191 c-42 -42 -35 -143 12 -176 30 -21 105 -19 143 4 17 11 38 33 45 49 l13 30 15 -30 c20 -41 67 -68 119 -68 54 0 77 12 97 50 27 53 10 138 -30 154 -9 3 -102 6 -206 6 -174 0 -191 -2 -208 -19z m159 -57 c0 -8 -13 -29 -29 -45 -45 -44 -101 -35 -101 16 0 33 20 45 77 45 42 0 53 -3 53 -16z m230 0 c21 -24 1 -68 -33 -72 -30 -4 -87 44 -87 72 0 23 102 23 120 0z"/>
 </g>

</svg>