<!DOCTYPE svg PUBLIC "-//W3C//DTD SVG 20010904//EN" "http://www.w3.org/TR/2001/REC-SVG-20010904/DTD/svg10.dtd">
<svg version="1.0" xmlns="http://www.w3.org/2000/svg" width="86px" height="76px" viewBox="0 0 860 760" preserveAspectRatio="xMidYMid meet">
<g id="layer101" fill="#000000" stroke="none">
 <path d="M257 603 c-88 -87 -176 -179 -197 -205 -96 -120 -68 -283 63 -358 87 -50 198 -41 275 24 l32 28 33 -28 c47 -40 89 -54 159 -54 202 0 307 228 178 388 -57 71 -354 362 -370 362 -7 0 -85 -71 -173 -157z m335 -101 c193 -194 213 -232 169 -328 -19 -42 -63 -76 -114 -88 -46 -11 -106 12 -157 60 -26 24 -53 44 -60 44 -7 0 -34 -20 -60 -44 -51 -48 -111 -71 -157 -60 -51 12 -95 46 -114 88 -44 96 -24 134 169 328 86 87 159 158 162 158 3 0 76 -71 162 -158z"/>
 </g>

</svg>