<!DOCTYPE svg PUBLIC "-//W3C//DTD SVG 20010904//EN" "http://www.w3.org/TR/2001/REC-SVG-20010904/DTD/svg10.dtd">
<svg version="1.0" xmlns="http://www.w3.org/2000/svg" width="50px" height="67px" viewBox="0 0 500 670" preserveAspectRatio="xMidYMid meet">
<g id="layer101" fill="#000" stroke="none">
 <path d="M0 484 c0 -173 1 -186 19 -191 15 -4 19 -17 23 -78 7 -99 38 -153 110 -189 82 -41 169 -31 235 27 48 42 63 82 63 166 0 65 2 70 23 73 22 3 22 5 25 191 l2 187 -250 0 -250 0 0 -186z m380 -264 c0 -66 -2 -73 -33 -106 -28 -31 -42 -37 -83 -41 -98 -10 -144 38 -144 152 l0 65 130 0 130 0 0 -70z"/>
 </g>

</svg>